<?xml version="1.0" standalone="no"?>
<!DOCTYPE svg PUBLIC "-//W3C//DTD SVG 20010904//EN"
 "http://www.w3.org/TR/2001/REC-SVG-20010904/DTD/svg10.dtd">
<svg version="1.0" xmlns="http://www.w3.org/2000/svg"
 width="500.000000pt" height="500.000000pt" viewBox="0 0 500.000000 500.000000"
 preserveAspectRatio="xMidYMid meet">
<metadata>
Created by potrace 1.14, written by Peter Selinger 2001-2017
</metadata>
<g transform="translate(0.000000,500.000000) scale(0.100000,-0.100000)"
fill="#000000" stroke="none">
<path d="M2240 4985 c0 -8 -4 -15 -9 -15 -9 0 -6 -103 3 -119 3 -5 -16 -14
-41 -21 -59 -14 -73 -26 -73 -57 0 -28 -14 -57 -46 -96 -13 -16 -24 -37 -24
-47 0 -29 -29 -52 -57 -45 -29 7 -42 -18 -21 -43 31 -36 29 -51 -8 -58 -35 -6
-64 -36 -64 -64 0 -9 -7 -39 -15 -66 -12 -41 -21 -53 -50 -67 -29 -14 -35 -21
-30 -37 4 -11 2 -21 -4 -21 -26 -3 -30 -4 -35 -9 -4 -5 -12 -43 -15 -73 -1
-10 -52 -6 -68 6 -6 5 -10 14 -7 21 6 16 -21 40 -36 31 -5 -3 -10 -19 -10 -35
0 -25 -3 -29 -27 -27 -20 2 -28 8 -28 22 0 22 -39 29 -41 8 -1 -7 -2 -17 -3
-23 0 -5 -10 -10 -20 -10 -27 0 -31 -18 -31 -155 l0 -123 30 -4 c22 -3 35 2
52 21 23 27 34 86 18 96 -6 4 -8 11 -5 16 4 5 2 9 -4 9 -6 0 -8 7 -5 15 4 8 2
15 -3 15 -5 0 -9 9 -10 20 -2 20 18 23 44 7 6 -4 15 -2 19 4 5 8 9 7 15 -2 8
-14 73 -17 100 -5 21 9 26 -9 23 -104 -1 -41 -3 -159 -4 -263 l-2 -187 -88
-93 c-63 -67 -91 -104 -99 -133 -6 -22 -22 -55 -35 -73 -18 -24 -25 -46 -24
-77 0 -28 -7 -52 -21 -73 -12 -16 -21 -33 -20 -38 6 -35 -3 -64 -23 -72 -13
-5 -31 -19 -41 -31 -10 -11 -22 -18 -27 -15 -9 6 -14 -8 -11 -28 1 -4 4 -24 7
-44 9 -58 13 -73 19 -83 4 -6 -10 -17 -29 -25 -20 -9 -36 -19 -37 -23 -1 -4
-2 -19 -3 -34 -1 -33 -13 -45 -46 -52 -60 -11 -60 -10 -61 -120 -3 -428 -4
-445 -23 -459 -9 -7 -19 -21 -21 -32 -2 -11 -4 -20 -5 -20 -1 0 -3 -17 -4 -37
-1 -21 2 -38 6 -38 3 0 4 -12 2 -27 -3 -16 -5 -35 -5 -43 1 -34 1 -48 -2 -120
-5 -101 2 -113 61 -108 l47 3 -1 -80 c0 -83 7 -132 19 -127 13 5 67 -32 72
-49 6 -17 52 -32 60 -20 2 4 27 6 56 5 29 -2 60 1 70 7 24 13 31 -12 27 -102
-2 -60 -6 -75 -28 -96 -23 -24 -25 -24 -28 -6 -2 10 1 44 6 74 9 60 1 115 -11
69 -3 -14 -9 -97 -12 -185 -4 -88 -9 -167 -13 -175 -3 -8 -7 -75 -8 -149 -2
-73 -5 -139 -7 -146 -4 -10 -27 -18 -75 -26 -36 -6 -39 -17 -38 -141 l1 -123
145 -2 c80 -1 156 -2 170 -2 23 -1 25 -5 26 -54 3 -93 7 -117 21 -128 11 -10
8 -21 -18 -68 -17 -31 -38 -62 -47 -69 -13 -10 19 -12 178 -10 165 3 195 5
196 18 1 8 2 30 3 48 1 24 7 35 23 41 25 9 30 28 32 136 l2 80 29 3 c17 2 37
6 45 9 8 3 18 6 22 5 4 -1 5 8 3 19 -7 37 14 46 95 43 41 -2 84 -6 95 -8 11
-2 24 -5 28 -5 5 -1 5 -6 2 -12 -14 -21 6 -56 44 -77 39 -22 66 -68 55 -96 -5
-13 17 -38 32 -35 5 1 24 1 43 0 33 -1 33 -2 26 -33 -5 -18 -10 -57 -11 -86
l-3 -52 197 2 c178 3 197 5 200 20 2 10 -6 32 -18 48 -19 27 -22 47 -25 140
l-2 110 36 1 c105 4 186 -2 193 -14 4 -6 8 -8 8 -3 0 5 7 3 15 -4 17 -14 50
-6 40 10 -3 5 -2 10 4 10 5 0 10 54 10 135 l1 134 -40 12 c-45 14 -42 -3 -42
199 0 61 -5 108 -15 130 -8 19 -16 62 -18 95 -11 151 -14 208 -19 321 -4 98
-10 135 -31 190 -23 60 -31 87 -49 165 -3 9 -14 36 -25 59 -25 51 -23 99 10
248 7 28 16 52 20 52 4 0 21 -8 38 -17 l30 -18 3 -145 c3 -158 10 -179 69
-213 16 -9 30 -27 34 -46 7 -34 30 -52 87 -70 33 -11 38 -16 43 -54 3 -23 4
-322 3 -665 -3 -591 -4 -624 -21 -634 -18 -9 -18 -10 0 -30 14 -16 18 -37 18
-92 l0 -71 65 0 65 0 -3 615 c-1 338 -4 806 -6 1040 l-4 425 39 37 c21 20 43
47 47 60 5 12 8 158 8 322 -1 322 2 297 -45 323 -2 1 -5 82 -7 180 -4 224 -12
391 -19 423 -13 57 -11 80 7 86 10 3 31 17 46 31 15 14 49 44 77 67 90 75 245
234 246 253 6 84 5 273 -2 298 -6 22 -44 64 -117 132 -208 194 -215 199 -308
184 -51 -8 -80 -20 -142 -61 -100 -67 -222 -160 -223 -171 -1 -5 -3 -13 -4
-19 -1 -5 -3 -14 -4 -20 0 -6 -40 -10 -97 -10 l-95 0 -14 33 c-8 19 -21 40
-30 47 -38 32 -107 144 -131 212 -28 78 -41 101 -55 92 -13 -8 -11 13 3 36 19
30 -3 48 -40 34 -33 -13 -55 1 -84 51 l-17 30 32 17 32 16 -27 12 c-14 7 -29
21 -32 33 -3 13 -10 18 -20 14 -9 -4 -16 -3 -16 1 0 4 -13 15 -29 24 -29 16
-30 19 -27 82 l3 66 -89 0 c-72 0 -88 -3 -88 -15z m780 -935 c4 -6 5 -46 3
-88 -5 -96 2 -137 27 -148 10 -5 63 -52 117 -104 54 -52 118 -112 142 -134
l44 -38 -2 -351 c-2 -320 -5 -385 -18 -350 -3 9 -10 9 -28 -3 -13 -9 -34 -14
-47 -12 -19 2 -23 10 -24 41 -1 20 -7 44 -14 52 -7 8 -12 36 -13 62 0 38 -6
52 -24 66 -13 10 -23 27 -23 38 0 33 -26 82 -64 121 -20 20 -36 45 -37 55 -4
64 -8 78 -30 92 -13 9 -30 24 -39 35 -8 10 -28 30 -44 45 -16 14 -41 44 -55
67 -25 38 -26 45 -25 178 1 136 1 138 -22 147 -29 11 -31 25 -3 34 11 4 18 12
16 18 -2 7 -1 23 3 37 11 37 -4 70 -30 65 -18 -3 -20 1 -20 40 l0 44 58 3 c84
4 145 0 152 -12z m214 -1742 c8 -32 7 -38 -5 -38 -5 0 -7 5 -4 10 3 6 2 10 -4
10 -5 0 -9 9 -8 20 2 27 13 25 21 -2z m21 -268 c-3 -5 -2 -10 3 -10 6 0 15
-13 20 -29 8 -22 7 -34 -4 -48 -13 -16 -13 -16 -8 0 3 9 2 17 -4 17 -5 0 -12
14 -16 31 -5 29 -1 49 10 49 3 0 2 -4 -1 -10z"/>
</g>
</svg>
